<svg xmlns="http://www.w3.org/2000/svg" width="76" height="67" viewBox="0 0 76 67">
    <g fill="#FFF" fill-rule="nonzero">
        <path d="M36.5 10c2.485 0 4.5-2.7 4.5-5v-.833C41 1.866 38.985 0 36.5 0S32 1.866 32 4.167V5c0 2.3 2.015 5 4.5 5zM42 12.986c-.08-.032-.158-.066-.244-.09-1.416-.418-3.574-.896-6.005-.896-2.432 0-4.59.479-6.006.895-1.047.308-1.745 1.167-1.745 2.129V18h12.357c-.191-.47-.3-.974-.3-1.5 0-1.423.76-2.69 1.943-3.514zM46.375 14h-1.75v2.25H42v1.5h2.625V20h1.75v-2.25H49v-1.5h-2.625zM8.5 28c2.485 0 4.5-2.7 4.5-5v-.833C13 19.866 10.985 18 8.5 18S4 19.866 4 22.167V23c0 2.3 2.015 5 4.5 5zM14 30.986c-.08-.032-.158-.066-.244-.09C12.34 30.477 10.182 30 7.751 30c-2.432 0-4.59.479-6.006.895C.698 31.203 0 32.062 0 33.024V36h12.357c-.191-.47-.3-.974-.3-1.5 0-1.423.76-2.69 1.943-3.514zM18.375 32h-1.75v2.25H14v1.5h2.625V38h1.75v-2.25H21v-1.5h-2.625z"/>
        <g>
            <path d="M63.5 28c2.485 0 4.5-2.7 4.5-5v-.833C68 19.866 65.985 18 63.5 18S59 19.866 59 22.167V23c0 2.3 2.015 5 4.5 5zM69 30.986c-.08-.032-.158-.066-.244-.09-1.416-.418-3.574-.896-6.005-.896-2.432 0-4.59.479-6.006.895-1.047.308-1.745 1.167-1.745 2.129V36h12.357c-.191-.47-.3-.974-.3-1.5 0-1.423.76-2.69 1.943-3.514zM73.375 32h-1.75v2.25H69v1.5h2.625V38h1.75v-2.25H76v-1.5h-2.625z"/>
        </g>
        <g>
            <path d="M18 57c2.761 0 5-2.7 5-5v-.833C23 48.866 20.761 47 18 47s-5 1.866-5 4.167V52c0 2.3 2.239 5 5 5zM24 59.986c-.086-.032-.17-.066-.261-.09-1.518-.418-3.83-.896-6.435-.896-2.606 0-4.917.479-6.435.895C9.747 60.203 9 61.062 9 62.024V65h13.24a3.736 3.736 0 0 1-.322-1.5c0-1.423.814-2.69 2.082-3.514zM28 61h-2v2.25h-3v1.5h3V67h2v-2.25h3v-1.5h-3z"/>
        </g>
        <g>
            <path d="M54 57c2.761 0 5-2.7 5-5v-.833C59 48.866 56.761 47 54 47s-5 1.866-5 4.167V52c0 2.3 2.239 5 5 5zM60 59.986c-.086-.032-.17-.066-.261-.09-1.518-.418-3.83-.896-6.435-.896-2.606 0-4.917.479-6.435.895-1.122.308-1.869 1.167-1.869 2.129V65h13.24a3.736 3.736 0 0 1-.322-1.5c0-1.423.814-2.69 2.082-3.514zM64 61h-2v2.25h-3v1.5h3V67h2v-2.25h3v-1.5h-3z"/>
        </g>
    </g>
</svg>
