<svg xmlns="http://www.w3.org/2000/svg" width="51" height="50" viewBox="0 0 51 50">
    <g fill="#FFF" fill-rule="nonzero">
        <path d="M50.167 0H21.833A.833.833 0 0 0 21 .833v23.334a.834.834 0 0 0 1.354.65l8.105-6.484h19.708c.46 0 .833-.373.833-.833V.833A.833.833 0 0 0 50.167 0z"/>
        <circle cx="40" cy="30" r="6"/>
        <circle cx="11" cy="30" r="6"/>
        <path d="M19.015 40.337C17.32 39.27 14.463 38 10.5 38c-4.016 0-6.857 1.267-8.532 2.329C.754 41.097 0 42.509 0 44.012v5.13c0 .475.361.858.808.858h19.384c.447 0 .808-.383.808-.857V44.03c0-1.511-.76-2.926-1.985-3.693zM49.016 40.337C47.319 39.27 44.463 38 40.5 38c-4.016 0-6.856 1.267-8.532 2.329-1.214.768-1.968 2.18-1.968 3.683v5.13c0 .475.361.858.808.858h19.384c.447 0 .808-.383.808-.857V44.03c0-1.511-.76-2.926-1.984-3.693z"/>
    </g>
</svg>
